<svg data-v-15ccd4e1="" width="80" height="80" viewBox="0 0 80 80" fill="none"
    xmlns="http://www.w3.org/2000/svg" class="h-7/10 portrait:ml-[var(--icon-ml-portrait)] portrait:xs:ml-[var(--icon-ml-portrait-xs)] sm:ml-[var(--icon-ml-sm)] portrait:sm:ml-[var(--icon-ml-portrait-sm)] md:ml-[var(--icon-ml-md)] xl:ml-[var(--icon-ml-xl)]">
    <path data-v-15ccd4e1="" fill-rule="evenodd" clip-rule="evenodd" d="M22.509 16.4645L3.98291 35L22.509 53.5355C24.4606 55.488 27.6248 55.488 29.5764 53.5355C31.528 51.583 31.528 48.4171 29.5764 46.4644L23.1153 40H58.5261C62.666 40 66.0223 43.3578 66.0223 47.5C66.0223 51.642 62.666 55 58.5261 55H51.0299C48.2699 55 46.0325 57.2385 46.0325 60C46.0325 62.7615 48.2699 65 51.0299 65H58.5261C68.1862 65 76.0172 57.165 76.0172 47.5C76.0172 37.835 68.1862 30 58.5261 30H23.1153L29.5764 23.5355C31.528 21.5829 31.528 18.4171 29.5764 16.4645C27.6248 14.5119 24.4606 14.5119 22.509 16.4645Z" fill="#7E7E7E"></path>
</svg>