<svg data-v-15ccd4e1="" width="69" height="70" viewBox="0 0 69 70" fill="none"
    xmlns="http://www.w3.org/2000/svg" class="h-7/10 w-auto">
    <path data-v-15ccd4e1="" d="M34.8172 0.799805C15.9484 0.799805 0.634521 16.1215 0.634521 35C0.634521 53.8785 15.9484 69.2002 34.8172 69.2002C53.6861 69.2002 69 53.8785 69 35C69 16.1215 53.6861 0.799805 34.8172 0.799805ZM47.1572 22.4827C50.8148 22.4827 53.7545 25.4239 53.7545 29.0834C53.7545 32.7428 50.8148 35.684 47.1572 35.684C43.4996 35.684 40.5599 32.7428 40.5599 29.0834C40.5258 25.4239 43.4996 22.4827 47.1572 22.4827ZM26.6476 17.0791C31.0913 17.0791 34.7147 20.7043 34.7147 25.1503C34.7147 29.5964 31.0913 33.2216 26.6476 33.2216C22.2038 33.2216 18.5804 29.5964 18.5804 25.1503C18.5804 20.6701 22.1696 17.0791 26.6476 17.0791ZM26.6476 48.3039V61.1289C18.4437 58.5639 11.949 52.2369 9.07765 44.1657C12.6668 40.3352 21.6227 38.3858 26.6476 38.3858C28.4593 38.3858 30.7495 38.6594 33.1423 39.1382C27.5363 42.1136 26.6476 46.0467 26.6476 48.3039ZM34.8172 62.3602C33.8943 62.3602 33.0056 62.326 32.1168 62.2234V48.3039C32.1168 43.4475 42.1665 41.0192 47.1572 41.0192C50.8148 41.0192 57.1386 42.353 60.2834 44.9523C56.284 55.1097 46.4052 62.3602 34.8172 62.3602Z" fill="#7E7E7E"></path>
</svg>