<svg data-v-200ff32c="" version="1.1" id="Layer_1"
	xmlns="http://www.w3.org/2000/svg"
	xmlns:xlink="http://www.w3.org/1999/xlink" x="0px" y="0px" viewBox="0 0 512 512" xml:space="preserve" class="fill-current w-6 portrait:w-5">
	<g data-v-200ff32c="">
		<g data-v-200ff32c="">
			<path data-v-200ff32c="" d="M478.61,99.73h-37.27c4.92-7.78,8.16-16.51,9.08-25.75c2.96-29.52-12.59-55.98-39.05-67.71
			c-24.33-10.78-51.66-6.38-71.35,11.48L292.96,60.4C283.8,50.37,270.62,44.07,256,44.07c-14.65,0-27.84,6.32-37.01,16.38
			l-47.12-42.71C152.15-0.11,124.83-4.5,100.51,6.28c-26.46,11.73-42.01,38.2-39.04,67.72c0.93,9.23,4.17,17.96,9.08,25.73H33.39
			C14.95,99.73,0,114.68,0,133.12v50.09c0,9.22,7.47,16.7,16.7,16.7H495.3c9.22,0,16.7-7.48,16.7-16.7v-50.09
			C512,114.68,497.05,99.73,478.61,99.73z M205.91,94.16v5.57h-78.54c-20.75,0-37.08-19.35-31.9-40.95
			c2.28-9.51,9.15-17.63,18.03-21.73c12.2-5.64,25.71-3.83,35.96,5.44l56.47,51.18C205.92,93.83,205.91,94,205.91,94.16z
			 M417.29,69.54c-1.24,17.35-16.92,30.18-34.32,30.18h-76.89v-5.57c0-0.2-0.01-0.39-0.01-0.59c12.79-11.6,40.54-36.75,55.59-50.39
			c8.55-7.75,20.52-11.37,31.59-8.07C409.13,39.85,418.45,53.35,417.29,69.54z"></path>
		</g>
	</g>
	<g data-v-200ff32c="">
		<g data-v-200ff32c="">
			<path data-v-200ff32c="" d="M33.39,233.29v244.87c0,18.44,14.95,33.39,33.39,33.39h155.83V233.29H33.39z"></path>
		</g>
	</g>
	<g data-v-200ff32c="">
		<g data-v-200ff32c="">
			<path data-v-200ff32c="" d="M289.39,233.29v278.26h155.83c18.44,0,33.39-14.95,33.39-33.39V233.29L289.39,233.29L289.39,233.29z"></path>
		</g>
	</g>
</svg>