<svg data-v-1d343fb1="" width="70" height="71" viewBox="0 0 70 71" fill="none"
	xmlns="http://www.w3.org/2000/svg" stroke="#000">
	<path data-v-1d343fb1="" d="M26.6425 64.2681V49.8276C26.6425 47.1042 26.6425 45.7439 25.7963 44.8977C24.9501 44.0515 23.5898 44.0515 20.8663 44.0515H19.4223C15.3357 44.0515 13.2938 44.0515 12.0288 45.3222C10.758 46.5901 10.758 48.632 10.758 52.7157V64.2681H26.6425ZM26.6425 64.2681H43.971M26.6425 64.2681V46.9395C26.6425 42.8558 26.6425 40.8139 27.9133 39.546C29.1782 38.2753 31.2201 38.2753 35.3068 38.2753C39.3934 38.2753 41.4324 38.2753 42.7003 39.546C43.971 40.8139 43.971 42.8558 43.971 46.9395V64.2681M43.971 64.2681H59.8555V58.4919C59.8555 54.4081 59.8555 52.3663 58.5847 51.0984C57.3169 49.8276 55.275 49.8276 51.1912 49.8276H49.7472C47.0237 49.8276 45.6634 49.8276 44.8172 50.6738C43.971 51.52 43.971 52.8803 43.971 55.6038V64.2681ZM6.4259 64.2681H64.1876M37.3024 8.17564L39.3357 12.2767C39.5081 12.584 39.7433 12.8516 40.0259 13.062C40.3085 13.2725 40.6323 13.4212 40.9761 13.4984L44.6613 14.1135C47.018 14.5092 47.5725 16.2334 45.8743 17.9345L43.0093 20.8226C42.7582 21.1069 42.5739 21.4438 42.4699 21.8086C42.366 22.1734 42.345 22.5569 42.4086 22.9309L43.2288 26.5063C43.8757 29.3367 42.3855 30.4312 39.9017 28.9525L36.4476 26.8904C36.0942 26.7071 35.702 26.6115 35.3039 26.6115C34.9058 26.6115 34.5136 26.7071 34.1602 26.8904L30.706 28.9525C28.2338 30.4312 26.732 29.3251 27.379 26.5063L28.1992 22.9309C28.2627 22.5569 28.2418 22.1734 28.1378 21.8086C28.0339 21.4438 27.8496 21.1069 27.5985 20.8226L24.7364 17.9345C23.0497 16.2334 23.5927 14.5092 25.9494 14.1135L29.6317 13.4984C29.9737 13.4194 30.2953 13.2696 30.5758 13.0587C30.8564 12.8477 31.0896 12.5804 31.2606 12.2738L33.2938 8.17275C34.4028 5.94893 36.205 5.94893 37.3024 8.17275" stroke-width="4.33213" stroke-linecap="round" stroke-linejoin="round"></path>
</svg>